# xmcd
# 
# Track frame offsets:
#     150
#     19134
#     37263
#     61107
#     76011
# 
# Disc length: 1263
# 
# Revision: 0
# Processed by: cddbd v1.5.2PL0 Copyright (c) Steve Scherf et al.
# Submitted via: fre:ac v1.0.17
# 
DISCID=3304ed05
DTITLE=遊助 - ミツバチ
DYEAR=0
DGENRE=JPop
TTITLE0=ミツバチ
TTITLE1=SUMMER TIME
TTITLE2=今日の花
TTITLE3=ESCAPE 遊 turing 成田誠
TTITLE4=ミツバチ (Inst.)
EXTD=
EXTT0=
EXTT1=
EXTT2=
EXTT3=
EXTT4=
PLAYORDER=
